<svg width="212" height="217" viewBox="0 0 212 217" fill="none" xmlns="http://www.w3.org/2000/svg">
<path fill-rule="evenodd" clip-rule="evenodd" d="M0.914351 1.73649C1.33087 2.37434 19.5304 28.8862 41.3581 60.6522C63.1858 92.4182 81.3719 118.909 81.7715 119.522L82.4983 120.635L41.9504 167.793C19.6493 193.729 1.1146 215.282 0.763004 215.688L0.123047 216.426H9.38893H18.6544L49.1881 180.92C65.9813 161.391 82.2112 142.531 85.2546 139.008L90.7883 132.601L119.595 174.514L148.402 216.426H179.771H211.14L210.383 215.266C209.967 214.629 190.857 186.795 167.917 153.413C144.977 120.03 126.13 92.5122 126.033 92.2609C125.903 91.9224 198.181 7.33717 203.566 1.5257L204.445 0.577148H195.112H185.778L151.783 40.1002C133.086 61.8381 117.665 79.6603 117.515 79.705C117.365 79.7501 105.014 61.965 90.0695 40.182L62.8974 0.577148H31.5269H0.156773L0.914351 1.73649ZM103.119 84.7745C130.132 123.424 159.765 165.825 168.971 178.997L185.709 202.946L171.293 202.835L156.876 202.724L91.2461 108.923C55.1497 57.3322 25.6012 14.9796 25.5822 14.8054C25.5637 14.6313 31.9514 14.4922 39.7768 14.4956L54.0051 14.5019L103.119 84.7745Z" fill="#3772FF"/>
</svg>
