<svg width="512" height="512" viewBox="0 0 512 512" fill="none" xmlns="http://www.w3.org/2000/svg">
<g clip-path="url(#clip0_1187_117)">
<path d="M371.643 0H140.357C62.964 0 0 62.964 0 140.358V371.643C0 449.037 62.964 512 140.357 512H371.643C449.037 512 512 449.037 512 371.643V140.358C512 62.964 449.037 0 371.643 0ZM481.764 371.643C481.764 432.364 432.365 481.764 371.643 481.764H140.357C79.636 481.764 30.236 432.365 30.236 371.643V140.358C30.236 79.636 79.636 30.236 140.357 30.236H371.643C432.365 30.236 481.764 79.636 481.764 140.358V371.643Z" fill="#2253FF"/>
<path d="M256.001 115.57C178.567 115.57 115.57 178.567 115.57 256.001C115.57 333.435 178.566 396.432 256.001 396.432C333.435 396.432 396.433 333.434 396.433 256C396.433 178.566 333.435 115.57 256.001 115.57ZM256.001 366.197C195.239 366.197 145.805 316.762 145.805 256C145.805 195.238 195.239 145.804 256.001 145.804C316.764 145.804 366.198 195.239 366.198 256.001C366.198 316.763 316.764 366.197 256.001 366.197Z" fill="#2253FF"/>
<path d="M404.83 64.5039C381.304 64.5039 362.164 83.6449 362.164 107.171C362.164 130.697 381.304 149.837 404.83 149.837C428.356 149.837 447.496 130.696 447.496 107.17C447.496 83.6439 428.356 64.5039 404.83 64.5039ZM404.83 119.6C397.977 119.6 392.4 114.024 392.4 107.17C392.4 100.316 397.977 94.7399 404.83 94.7399C411.684 94.7399 417.26 100.317 417.26 107.17C417.26 114.023 411.684 119.6 404.83 119.6Z" fill="#2253FF"/>
</g>
<defs>
<clipPath id="clip0_1187_117">
<rect width="512" height="512" fill="white"/>
</clipPath>
</defs>
</svg>
