<svg width="808" height="103" viewBox="0 0 808 103" fill="none" xmlns="http://www.w3.org/2000/svg">
<path d="M132.22 36.6317H148.737H197.775C201.872 36.6317 205.201 33.3028 205.201 29.2055V24.3401C205.201 20.2429 201.872 16.9139 197.775 16.9139H132.22V0.268915H197.775C210.963 0.268915 221.846 11.1522 221.846 24.3401V29.2055C221.846 39.7047 214.932 48.6673 205.458 51.9963L221.846 77.0918H202.001L186.508 53.2767H148.737V77.0918H132.22V53.2767V36.6317ZM271.613 77.0918H251.895L301.702 0.268915H319.884L369.818 77.0918H350.101L310.793 16.7858L271.613 77.0918ZM474.089 60.5749C477.93 60.5749 481.131 57.502 481.131 53.6608V52.3804H497.648V53.6608C497.648 66.5927 487.02 77.2198 474.089 77.2198H446.048H423.385C410.454 77.2198 399.954 66.5927 399.954 53.6608V23.8279C399.954 10.8961 410.454 0.268915 423.385 0.268915H446.048H474.089C487.02 0.268915 497.648 10.8961 497.648 23.8279V25.1083H481.131V23.8279C481.131 19.9868 477.93 16.9139 474.089 16.9139H446.048H423.385C419.544 16.9139 416.471 19.9868 416.471 23.8279V53.6608C416.471 57.502 419.544 60.5749 423.385 60.5749H446.048H474.089ZM566.553 16.9139H527.758V0.268915H531.087H566.553H583.07H618.537H621.994V16.9139H583.07V77.0918H566.553V16.9139Z" fill="white"/>
<path d="M652.06 0.268915H668.576V77.0918H652.06V0.268915ZM737.509 16.9139H698.713V0.268915H702.042H737.509H754.026H789.492H792.95V16.9139H754.026V77.0918H737.509V16.9139Z" fill="#3772FF"/>
<path d="M17.0664 0.0917969V42.7237H104V29.2158H46.165L34.1038 38.1463V13.3588H104V0.0917969H17.0664Z" fill="white"/>
<rect x="17.0664" y="59.7913" width="17.0673" height="17.0673" fill="#3772FF"/>
<rect y="42.7236" width="17.0673" height="17.0673" fill="#3772FF"/>
</svg>
