<svg width="299" height="229" viewBox="0 0 299 229" fill="none" xmlns="http://www.w3.org/2000/svg">
<path fill-rule="evenodd" clip-rule="evenodd" d="M102.962 1.31091C82.1182 5.71902 64.0086 11.3748 49.2642 18.0818L45.5059 19.7915L40.4923 27.8669C9.64488 77.5524 -4.73149 136.14 1.3799 187.26L1.7573 190.416L8.46541 195.04C28.5717 208.901 72.1301 229.804 77.0078 227.933C79.3054 227.051 93.4525 203.19 92.3087 202.124C91.912 201.755 88.7009 200.225 85.1718 198.725C70.586 192.525 67.4706 190.227 70.3533 187.793C73.7669 184.911 73.7791 184.91 78.7793 187.107C122.536 206.335 174.1 206.604 218.417 187.836L225.084 185.013L227.896 187.158C230.918 189.462 231.099 189.767 229.979 190.68C228.602 191.803 216.795 197.673 211.504 199.867C208.592 201.074 206.209 202.227 206.209 202.429C206.209 204.362 221.167 228.12 222.393 228.136C223.724 228.152 241.1 221.758 248.643 218.476C263.177 212.154 278.916 203.331 292.276 194.016L297.615 190.294L297.989 186.032C302.917 129.94 288.907 74.4649 257.633 26.233L253.229 19.4403L247.364 16.9554C208.801 0.612683 192.517 -1.65232 187.528 8.63267C185.533 12.745 183.821 16.1994 183.725 16.3091C183.627 16.4182 179.656 16.0402 174.9 15.4685C164.582 14.2278 137.003 14.0126 127.691 15.0999C124.449 15.4784 120.38 15.948 118.649 16.1434L115.504 16.4987L111.668 8.72134C107.497 0.265612 107.579 0.335028 102.962 1.31091ZM110.639 98.2058C128.961 107.278 132.627 134.089 117.516 148.503C99.925 165.281 73.4635 151.436 73.5178 125.481C73.5627 103.904 93.1218 89.5331 110.639 98.2058ZM206.856 96.9202C230.895 105.018 232.946 141.905 209.988 153.251C190.01 163.125 168.183 142.74 173.231 118.921C176.782 102.161 192.291 92.0134 206.856 96.9202Z" fill="white"/>
</svg>
